<svg id="Layer_1" data-name="Layer 1" xmlns="http://www.w3.org/2000/svg" viewBox="0 0 2305.04 2305.04"><defs><style>.cls-1{fill:#333;}</style></defs><title>Artboard 1</title><path d="M1323.73,811.4c-12.67-131.14-36.58-293.59-81.52-460.41,0,0-35.48-125.33-77.79-155.33a17.79,17.79,0,0,0-22.81,1.8c-27.36,27.1-104.7,143.42-153,613.53,54.32,26.32,110.2,55,167,85.8C1212.86,866.11,1269.08,837.59,1323.73,811.4Z"/><path d="M1203.06,922.87q32.34,18,65,37,34.59,20.05,68.17,40.31c-1.35-38.71-3.82-86.73-8.3-141.65q-21.69,9.87-44.29,20.38S1253.07,895,1203.06,922.87Z"/><path d="M1104.69,924.54c-39.07-20.88-79.72-42-121.05-62.78q-2,21.62-3.95,44.14s-1.19,34.43-1.92,91.51q32-19,64.86-37.92Q1073.79,941.63,1104.69,924.54Z"/><path d="M815.8,1156c36.17,25.27,74.64,51.26,114.5,76.93q-.66-38.64-.67-78.06,0-36.23.57-71.8C892.74,1106.34,854.26,1130.79,815.8,1156Z"/><path d="M931.48,1025.36c1.83-63.65,5-125.44,9.33-184.8C800.22,771.93,655.54,711,541.68,685.06c0,0-121-37.08-207.22-20.82,0,0-19.49,5.27-10.24,27.13l.1.19S335.73,754.13,468.89,882a66.94,66.94,0,0,1,41-14c38,0,68.77,31.85,68.77,71.14a72.7,72.7,0,0,1-7.71,32.71c34.3,27.86,108.55,86.9,203.21,154.75Q848.88,1076,931.48,1025.36Z"/><path d="M775.54,1182.78c-129.8,87.25-255,181.89-334.46,267.41,0,0-92.58,86.22-121.65,168.94,0,0-5.36,19.48,18.35,22.48h0s82.62,29.59,340.87-63.41c0,0,113.81-41.29,262.22-108.36-4.38-59.7-7.56-121.86-9.39-185.91Q849.83,1233.48,775.54,1182.78Z"/><path d="M1042,1350.06q-30.88-17.89-61-36c1.51,43.71,3.55,88.88,6.28,134.43,39.57-18.47,80.88-38.52,122.6-59.9Q1076.09,1369.82,1042,1350.06Z"/><path d="M1535.87,1183.19q-74.82,50.6-157.55,101.32c-1.87,65.14-5.12,128.35-9.63,189,119.63,54.61,271.7,115.06,438,159.66,0,0,126.26,32.15,173.4,10.57a17.78,17.78,0,0,0,9.87-20.67C1980.25,1585.9,1918.39,1460.61,1535.87,1183.19Z"/><path d="M1152.52,0C516,0,0,516,0,1152.52S516,2305,1152.52,2305,2305,1789,2305,1152.52,1789,0,1152.52,0Zm874.4,1660.06c-48,82.91-319.85,20-661.95-140.43-32.68,376.34-114.42,643.13-210.08,643.13-60.61,0-115.62-107.09-156.11-281.28-31.35-6.62-54.94-35.31-54.94-69.7a71.77,71.77,0,0,1,29.76-58.58C961.76,1681.48,952,1602.47,944.69,1518c-343.49,159.47-616.3,221.64-664,138.52s143-286.75,453.27-502.43c-72.77-51-138.94-101.39-196.94-149.62a66.6,66.6,0,0,1-27.2,5.79c-38,0-68.77-31.85-68.77-71.14a73.55,73.55,0,0,1,2.12-17.56C316,801.19,252.85,701.72,282.86,649.82c47.95-82.92,320-20,662,140.3,32.67-376.31,114.39-643.06,210.05-643.06s177.65,267.58,210.23,644.81c72-33.41,140.84-62.56,205.18-87a75.07,75.07,0,0,1-.4-7.68c0-39.29,30.79-71.14,68.77-71.14,25.13,0,47.1,14,59.09,34.76,176.38-54.27,300.6-61.05,331.34-7.48h.05c47.6,83-143,286.77-453.31,502.47C1885,1372.77,2074.91,1577.27,2026.92,1660.06Z"/><path d="M1538.08,1129.65c107.2-76.18,235.68-177.52,357.5-299.14,0,0,91.26-93.15,96-144.75a17.78,17.78,0,0,0-12.95-19c-24.92-6.85-96.29-13.29-272.08,41.87-5.29,33.85-33.66,59.71-67.88,59.71a67.31,67.31,0,0,1-47.62-19.85C1527.32,772.25,1453.76,802.25,1369,840c4.38,59.69,7.56,121.83,9.39,185.86C1434.16,1060.37,1487.56,1095.11,1538.08,1129.65Z"/><path d="M990.4,1496.38c5.94,83.79,14.37,167.52,26.27,244.39,36.09,2.18,64.71,33.13,64.71,71,0,27.87-15.5,52-38.06,63.65,4,15.83,8.24,31,12.73,45.47,0,0,28.64,123.32,85.94,189.72,0,0,14.23,14.25,28.46-4.75v0s66.82-56.91,114.54-327.25c0,0,20.65-118.49,36.29-279.79-54.31-26.32-110.18-55-167-85.78C1098.53,1442.91,1043.72,1470.75,990.4,1496.38Z"/><path d="M1499.21,1156.84q-20-14.25-41.06-29s-29.35-18.38-78.58-47.76q.6,37,.61,74.81,0,40.57-.71,80.35C1412.62,1214.66,1453.39,1188.37,1499.21,1156.84Z"/><path d="M1337.54,1055.23c-50.53-29.66-113.93-66-184.21-104.41-49.83,28.29-110.56,63.58-176,103.38-.27,58.67.14,131,2.2,209.81,41.56,25.69,84.16,50.6,126.84,73.62,0,0,17,10.44,48,27.78,45.53-24.25,91-50,134.67-76.78,0,0,17.53-9.46,48-27.59,1.66-51.85,2-104.4.46-155.94C1337.49,1105.1,1338,1087.24,1337.54,1055.23Zm-179.7,215.86a118.57,118.57,0,1,1,118.57-118.57A118.58,118.58,0,0,1,1157.84,1271.09Z"/><path d="M1198,1389.24c34.34,18.33,77.36,40.36,127.42,64.12,3.91-45.45,7.28-93.52,9.62-142.7q-33.4,19.92-67.81,39.67Q1232.46,1370.28,1198,1389.24Z"/><path class="cls-1" d="M578.63,937.09a72.7,72.7,0,0,1-7.71,32.71c34.3,27.86,108.55,86.9,203.21,154.75q74.75-50.54,157.36-101.19c1.82-63.65,5-125.44,9.32-184.8-100.27-48.95-202.62-94-294.39-125.19A669.44,669.44,0,0,0,543.08,874.8,71.53,71.53,0,0,1,578.63,937.09Z"/><path class="cls-1" d="M537.06,1002.44a66.73,66.73,0,0,1-37.93,4.92,674.14,674.14,0,0,0,7.8,318.27c64.91-55.42,141.43-114,227.07-173.57C661.23,1101,595.06,1050.67,537.06,1002.44Z"/><path class="cls-1" d="M1570.3,702.88a75.07,75.07,0,0,1-.4-7.68,72.14,72.14,0,0,1,20.23-50.39,667.15,667.15,0,0,0-262.7-139.93c15.85,84.34,28.66,180.45,37.69,285C1437.09,756.46,1506,727.31,1570.3,702.88Z"/><path class="cls-1" d="M1378.32,1282.51c-1.87,65.14-5.12,128.35-9.63,189,83.25,38,182.23,78.83,290.77,115.19a668.17,668.17,0,0,0,123.07-211.35c-62-54.29-142.45-118.57-246.66-194.15Q1461.05,1231.79,1378.32,1282.51Z"/><path class="cls-1" d="M982.61,503.56a667.88,667.88,0,0,0-303.38,174.5c80.93,28.47,170.57,65.5,265.61,110.06C953.91,683.71,966.75,587.74,982.61,503.56Z"/><path class="cls-1" d="M1800,982.68c-64.29,54.7-139.82,112.47-224.19,171.12,83.66,58.71,158.58,116.51,222.43,171.23A673.65,673.65,0,0,0,1800,982.68Z"/><path class="cls-1" d="M1378.35,1023.86c55.81,34.51,109.21,69.25,159.73,103.79,75-53.32,160.49-119,246.79-195.28a667.18,667.18,0,0,0-99-185.4,67.06,67.06,0,0,1-94.77-.48C1527.32,770.25,1453.76,800.25,1369,838,1373.34,897.69,1376.52,959.83,1378.35,1023.86Z"/><path class="cls-1" d="M1323.73,809.4c-9-92.87-23.59-201.45-47.32-316.16a675.27,675.27,0,0,0-242.27-1c-16.3,81.85-32,185.51-45.53,316.77,54.32,26.32,110.2,55,167,85.8C1212.86,864.11,1269.08,835.59,1323.73,809.4Z"/><path class="cls-1" d="M931.46,1281.93q-81.63-50.45-155.92-101.15c-92,61.83-181.65,127.38-254.38,190.76a668.21,668.21,0,0,0,125.13,216q15.71-5.34,32.34-11.32s113.81-41.29,262.22-108.36C936.47,1408.14,933.29,1346,931.46,1281.93Z"/><path class="cls-1" d="M1499.21,1154.84q-20-14.25-41.06-29s-29.35-18.38-78.58-47.76q.6,37,.61,74.81,0,40.57-.71,80.35C1412.62,1212.66,1453.39,1186.37,1499.21,1154.84Z"/><path class="cls-1" d="M815.8,1154c36.17,25.27,74.64,51.26,114.5,76.93q-.66-38.64-.67-78.06,0-36.23.57-71.8C892.74,1104.34,854.26,1128.79,815.8,1154Z"/><path class="cls-1" d="M1042,1348.06q-30.88-17.89-61-36c1.51,43.71,3.55,88.88,6.28,134.43,39.57-18.47,80.88-38.52,122.6-59.9Q1076.09,1367.82,1042,1348.06Z"/><path class="cls-1" d="M977.77,995.41q32-19,64.86-37.92,31.15-17.87,62.06-35c-39.07-20.89-79.72-42-121.05-62.78q-2,21.62-3.95,44.14S978.5,938.33,977.77,995.41Z"/><path class="cls-1" d="M1154.34,1363.41c45.53-24.25,91-50,134.67-76.78,0,0,17.53-9.46,48-27.59,1.66-51.86,2-104.4.46-155.94,0,0,.46-17.86,0-49.87-50.53-29.66-113.93-66-184.21-104.41-49.83,28.29-110.56,63.58-176,103.38-.27,58.67.14,131,2.2,209.81,41.56,25.69,84.16,50.6,126.84,73.62C1106.32,1335.63,1123.33,1346.07,1154.34,1363.41Zm-115.07-209.56a118.57,118.57,0,1,1,118.57,118.57A118.58,118.58,0,0,1,1039.27,1153.85Z"/><path class="cls-1" d="M1267.25,1348.33q-34.79,20-69.23,38.91c34.34,18.33,77.36,40.36,127.42,64.12,3.91-45.45,7.28-93.52,9.62-142.7Q1301.66,1328.58,1267.25,1348.33Z"/><path class="cls-1" d="M1203.06,920.87q32.34,18,65,37,34.59,20.05,68.17,40.31c-1.35-38.71-3.82-86.73-8.3-141.65q-21.69,9.87-44.29,20.38S1253.07,893,1203.06,920.87Z"/><path class="cls-1" d="M990.4,1494.38c5.94,83.79,14.37,167.52,26.27,244.39,36.09,2.18,64.71,33.13,64.71,71,0,1.92-.08,3.83-.23,5.71a675.48,675.48,0,0,0,198.17-8.23q2.88-14.85,5.67-30.67s20.65-118.49,36.29-279.79c-54.31-26.32-110.18-55-167-85.78C1098.53,1440.91,1043.72,1468.75,990.4,1494.38Z"/><path class="cls-1" d="M680.67,1624.42a668.62,668.62,0,0,0,266.71,162.79,71.13,71.13,0,0,1,26.22-36C961.76,1679.48,952,1600.47,944.69,1516,850.28,1559.8,761.2,1596.28,680.67,1624.42Z"/><path class="cls-1" d="M1328.37,1795.91a668,668,0,0,0,295.16-170.67c-79.06-28.14-166.25-64.32-258.56-107.61C1356.13,1619.45,1343.7,1713.24,1328.37,1795.91Z"/></svg>